<?xml version="1.0" standalone="no"?>
<!DOCTYPE svg PUBLIC "-//W3C//DTD SVG 20010904//EN"
 "http://www.w3.org/TR/2001/REC-SVG-20010904/DTD/svg10.dtd">
<svg version="1.0" xmlns="http://www.w3.org/2000/svg"
 width="260.000000pt" height="260.000000pt" viewBox="0 0 260.000000 260.000000"
 preserveAspectRatio="xMidYMid meet">
<metadata>
Created by potrace 1.14, written by Peter Selinger 2001-2017
</metadata>
<g transform="translate(0.000000,260.000000) scale(0.100000,-0.100000)"
fill="#000000" stroke="none">
<path d="M1265 2270 c-11 -4 -67 -84 -124 -176 -57 -93 -139 -225 -181 -294
-376 -607 -884 -1438 -891 -1457 -12 -32 14 -89 44 -97 12 -3 551 -6 1197 -6
1238 1 1193 -1 1217 45 17 32 7 61 -63 176 -37 61 -64 112 -61 115 3 3 11 7
19 8 15 3 87 46 75 46 -4 0 0 11 8 24 22 33 26 64 15 106 -13 47 -476 522
-489 501 -5 -8 -14 -11 -20 -7 -7 5 -9 1 -5 -8 7 -19 -3 -21 -20 -3 -11 11
-10 17 4 35 10 11 20 19 23 16 3 -3 13 8 23 25 10 17 26 34 36 37 10 3 18 11
18 19 0 8 9 17 21 20 11 4 18 9 16 12 -7 6 25 38 47 46 10 4 14 12 10 19 -5 8
0 9 16 5 16 -4 20 -3 12 5 -12 12 26 54 46 50 8 -2 11 1 7 8 -6 10 61 78 72
72 3 -2 9 1 13 8 4 6 13 12 21 13 8 2 20 6 27 10 7 5 12 3 12 -5 0 -18 29 26
71 109 56 107 56 109 17 148 -18 19 -38 35 -44 35 -6 0 -55 -19 -109 -43 -96
-43 -98 -44 -119 -95 -17 -39 -59 -89 -180 -212 -104 -106 -163 -159 -173
-156 -8 3 -12 10 -8 15 3 5 1 12 -4 15 -10 7 -9 25 1 42 4 5 6 48 5 95 -2 97
-30 169 -91 236 -40 45 -132 97 -187 107 -34 6 -42 15 -134 167 -108 177 -128
195 -190 169z m1128 -1497 c39 -44 -13 -96 -63 -63 -8 5 -11 10 -6 10 5 0 4 6
-2 13 -9 10 -7 19 4 35 18 27 45 28 67 5z"/>
<path d="M2355 771 c-3 -5 -2 -12 3 -15 5 -3 9 1 9 9 0 17 -3 19 -12 6z"/>
<path d="M2510 1760 c0 -5 5 -10 11 -10 5 0 7 5 4 10 -3 6 -8 10 -11 10 -2 0
-4 -4 -4 -10z"/>
</g>
</svg>
